<svg xmlns="http://www.w3.org/2000/svg" version="1.1" xmlns:xlink="http://www.w3.org/1999/xlink" width="1000" height="1000"><metadata><rdf:RDF xmlns:rdf="http://www.w3.org/1999/02/22-rdf-syntax-ns#" xmlns:dc="http://purl.org/dc/elements/1.1/"><rdf:Description><dc:creator>RealFaviconGenerator</dc:creator><dc:source>https://realfavicongenerator.net</dc:source></rdf:Description></rdf:RDF></metadata><style>
    #light-icon {
      display: inline;
    }
    #dark-icon {
      display: none;
    }

    @media (prefers-color-scheme: dark) {
      #light-icon {
        display: none;
      }
      #dark-icon {
        display: inline;
      }
    }
  </style><g id="light-icon"><svg xmlns="http://www.w3.org/2000/svg" version="1.1" xmlns:xlink="http://www.w3.org/1999/xlink" width="1000" height="1000"><g><g transform="matrix(1.953125,0,0,1.953125,0,0)"><svg xmlns="http://www.w3.org/2000/svg" width="512" height="512" viewBox="0 0 512 512" fill="none"><g clip-path="url(#clip0_1_11)">
<rect x="0.5" y="0.5" width="511" height="511" rx="95.5" fill="url(#paint0_linear_1_11)" stroke="black"></rect>
<mask id="path-2-outside-1_1_11" maskUnits="userSpaceOnUse" x="78" y="114" width="219" height="293" fill="black">
<rect fill="white" x="78" y="114" width="219" height="293"></rect>
<path d="M295.773 406V115.091H260.545V259.409H257.136L126.455 115.091H80.4318L202.591 246.341L80.4318 406H123.045L224.182 270.773L260.545 311.682V406H295.773Z"></path>
</mask>
<path d="M295.773 406V115.091H260.545V259.409H257.136L126.455 115.091H80.4318L202.591 246.341L80.4318 406H123.045L224.182 270.773L260.545 311.682V406H295.773Z" fill="#303030"></path>
<path d="M295.773 406H296.773V407H295.773V406ZM295.773 115.091V114.091H296.773V115.091H295.773ZM260.545 115.091H259.545V114.091H260.545V115.091ZM260.545 259.409H261.545V260.409H260.545V259.409ZM257.136 259.409V260.409H256.693L256.395 260.08L257.136 259.409ZM126.455 115.091V114.091H126.898L127.196 114.42L126.455 115.091ZM80.4318 115.091L79.6998 115.772L78.1349 114.091H80.4318V115.091ZM202.591 246.341L203.323 245.66L203.898 246.278L203.385 246.949L202.591 246.341ZM80.4318 406V407H78.4075L79.6376 405.392L80.4318 406ZM123.045 406L123.846 406.599L123.546 407H123.045V406ZM224.182 270.773L223.381 270.174L224.115 269.192L224.929 270.108L224.182 270.773ZM260.545 311.682L261.293 311.017L261.545 311.302V311.682H260.545ZM260.545 406V407H259.545V406H260.545ZM295.773 406H294.773V115.091H295.773H296.773V406H295.773ZM295.773 115.091V116.091H260.545V115.091V114.091H295.773V115.091ZM260.545 115.091H261.545V259.409H260.545H259.545V115.091H260.545ZM260.545 259.409V260.409H257.136V259.409V258.409H260.545V259.409ZM257.136 259.409L256.395 260.08L125.713 115.762L126.455 115.091L127.196 114.42L257.878 258.738L257.136 259.409ZM126.455 115.091V116.091H80.4318V115.091V114.091H126.455V115.091ZM80.4318 115.091L81.1638 114.41L203.323 245.66L202.591 246.341L201.859 247.022L79.6998 115.772L80.4318 115.091ZM202.591 246.341L203.385 246.949L81.226 406.608L80.4318 406L79.6376 405.392L201.797 245.733L202.591 246.341ZM80.4318 406V405H123.045V406V407H80.4318V406ZM123.045 406L122.245 405.401L223.381 270.174L224.182 270.773L224.983 271.372L123.846 406.599L123.045 406ZM224.182 270.773L224.929 270.108L261.293 311.017L260.545 311.682L259.798 312.346L223.434 271.437L224.182 270.773ZM260.545 311.682H261.545V406H260.545H259.545V311.682H260.545ZM260.545 406V405H295.773V406V407H260.545V406Z" fill="white" mask="url(#path-2-outside-1_1_11)"></path>
<mask id="path-4-outside-2_1_11" maskUnits="userSpaceOnUse" x="259" y="114" width="212" height="293" fill="black">
<rect fill="white" x="259" y="114" width="212" height="293"></rect>
<path d="M260.227 406V115.091H358.523C381.25 115.091 399.905 118.973 414.489 126.739C429.072 134.409 439.867 144.968 446.875 158.415C453.883 171.862 457.386 187.155 457.386 204.295C457.386 221.436 453.883 236.634 446.875 249.892C439.867 263.15 429.119 273.566 414.631 281.142C400.142 288.623 381.629 292.364 359.091 292.364H279.545V260.545H357.955C373.485 260.545 385.985 258.273 395.455 253.727C405.019 249.182 411.932 242.742 416.193 234.409C420.549 225.981 422.727 215.943 422.727 204.295C422.727 192.648 420.549 182.468 416.193 173.756C411.837 165.044 404.877 158.32 395.312 153.585C385.748 148.756 373.106 146.341 357.386 146.341H295.455V406H260.227ZM397.159 275.318L468.75 406H427.841L357.386 275.318H397.159Z"></path>
</mask>
<path d="M260.227 406V115.091H358.523C381.25 115.091 399.905 118.973 414.489 126.739C429.072 134.409 439.867 144.968 446.875 158.415C453.883 171.862 457.386 187.155 457.386 204.295C457.386 221.436 453.883 236.634 446.875 249.892C439.867 263.15 429.119 273.566 414.631 281.142C400.142 288.623 381.629 292.364 359.091 292.364H279.545V260.545H357.955C373.485 260.545 385.985 258.273 395.455 253.727C405.019 249.182 411.932 242.742 416.193 234.409C420.549 225.981 422.727 215.943 422.727 204.295C422.727 192.648 420.549 182.468 416.193 173.756C411.837 165.044 404.877 158.32 395.312 153.585C385.748 148.756 373.106 146.341 357.386 146.341H295.455V406H260.227ZM397.159 275.318L468.75 406H427.841L357.386 275.318H397.159Z" fill="#303030"></path>
<path d="M260.227 406H259.227V407H260.227V406ZM260.227 115.091V114.091H259.227V115.091H260.227ZM414.489 126.739L414.019 127.621L414.023 127.624L414.489 126.739ZM446.875 158.415L445.988 158.877V158.877L446.875 158.415ZM446.875 249.892L445.991 249.425V249.425L446.875 249.892ZM414.631 281.142L415.089 282.031L415.094 282.028L414.631 281.142ZM279.545 292.364H278.545V293.364H279.545V292.364ZM279.545 260.545V259.545H278.545V260.545H279.545ZM395.455 253.727L395.025 252.824L395.022 252.826L395.455 253.727ZM416.193 234.409L415.305 233.95L415.303 233.954L416.193 234.409ZM395.312 153.585L394.862 154.478L394.869 154.481L395.312 153.585ZM295.455 146.341V145.341H294.455V146.341H295.455ZM295.455 406V407H296.455V406H295.455ZM397.159 275.318L398.036 274.838L397.751 274.318H397.159V275.318ZM468.75 406V407H470.438L469.627 405.52L468.75 406ZM427.841 406L426.961 406.475L427.244 407H427.841V406ZM357.386 275.318V274.318H355.711L356.506 275.793L357.386 275.318ZM260.227 406H261.227V115.091H260.227H259.227V406H260.227ZM260.227 115.091V116.091H358.523V115.091V114.091H260.227V115.091ZM358.523 115.091V116.091C381.145 116.091 399.624 119.957 414.019 127.621L414.489 126.739L414.959 125.856C400.187 117.99 381.355 114.091 358.523 114.091V115.091ZM414.489 126.739L414.023 127.624C428.443 135.208 439.083 145.626 445.988 158.877L446.875 158.415L447.762 157.953C440.652 144.309 429.701 133.61 414.954 125.854L414.489 126.739ZM446.875 158.415L445.988 158.877C452.912 172.163 456.386 187.295 456.386 204.295H457.386H458.386C458.386 187.016 454.853 171.56 447.762 157.953L446.875 158.415ZM457.386 204.295H456.386C456.386 221.296 452.912 236.331 445.991 249.425L446.875 249.892L447.759 250.359C454.853 236.938 458.386 221.575 458.386 204.295H457.386ZM446.875 249.892L445.991 249.425C439.087 262.487 428.494 272.765 414.167 280.256L414.631 281.142L415.094 282.028C429.745 274.368 440.648 263.812 447.759 250.359L446.875 249.892ZM414.631 281.142L414.172 280.253C399.869 287.639 381.527 291.364 359.091 291.364V292.364V293.364C381.731 293.364 400.415 289.607 415.089 282.031L414.631 281.142ZM359.091 292.364V291.364H279.545V292.364V293.364H359.091V292.364ZM279.545 292.364H280.545V260.545H279.545H278.545V292.364H279.545ZM279.545 260.545V261.545H357.955V260.545V259.545H279.545V260.545ZM357.955 260.545V261.545C373.569 261.545 386.234 259.263 395.887 254.629L395.455 253.727L395.022 252.826C385.736 257.283 373.401 259.545 357.955 259.545V260.545ZM395.455 253.727L395.884 254.63C405.62 250.004 412.709 243.419 417.084 234.864L416.193 234.409L415.303 233.954C411.155 242.066 404.418 248.36 395.025 252.824L395.455 253.727ZM416.193 234.409L417.082 234.868C421.526 226.27 423.727 216.067 423.727 204.295H422.727H421.727C421.727 215.819 419.573 225.693 415.305 233.95L416.193 234.409ZM422.727 204.295H423.727C423.727 192.523 421.525 182.184 417.088 173.308L416.193 173.756L415.299 174.203C419.573 182.752 421.727 192.773 421.727 204.295H422.727ZM416.193 173.756L417.088 173.308C412.625 164.383 405.496 157.511 395.756 152.689L395.312 153.585L394.869 154.481C404.258 159.129 411.049 165.704 415.299 174.203L416.193 173.756ZM395.312 153.585L395.763 152.693C386.009 147.767 373.195 145.341 357.386 145.341V146.341V147.341C373.017 147.341 385.487 149.744 394.862 154.478L395.312 153.585ZM357.386 146.341V145.341H295.455V146.341V147.341H357.386V146.341ZM295.455 146.341H294.455V406H295.455H296.455V146.341H295.455ZM295.455 406V405H260.227V406V407H295.455V406ZM397.159 275.318L396.282 275.799L467.873 406.48L468.75 406L469.627 405.52L398.036 274.838L397.159 275.318ZM468.75 406V405H427.841V406V407H468.75V406ZM427.841 406L428.721 405.525L358.267 274.844L357.386 275.318L356.506 275.793L426.961 406.475L427.841 406ZM357.386 275.318V276.318H397.159V275.318V274.318H357.386V275.318Z" fill="white" mask="url(#path-4-outside-2_1_11)"></path>
<path d="M275.773 396V105.091H240.545V249.409H237.136L106.455 105.091H60.4318L182.591 236.341L60.4318 396H103.045L204.182 260.773L240.545 301.682V396H275.773Z" fill="#F2F2F7"></path>
<path d="M240.227 396V105.091H338.523C361.25 105.091 379.905 108.973 394.489 116.739C409.072 124.409 419.867 134.968 426.875 148.415C433.883 161.862 437.386 177.155 437.386 194.295C437.386 211.436 433.883 226.634 426.875 239.892C419.867 253.15 409.119 263.566 394.631 271.142C380.142 278.623 361.629 282.364 339.091 282.364H259.545V250.545H337.955C353.485 250.545 365.985 248.273 375.455 243.727C385.019 239.182 391.932 232.742 396.193 224.409C400.549 215.981 402.727 205.943 402.727 194.295C402.727 182.648 400.549 172.468 396.193 163.756C391.837 155.044 384.877 148.32 375.312 143.585C365.748 138.756 353.106 136.341 337.386 136.341H275.455V396H240.227ZM377.159 265.318L448.75 396H407.841L337.386 265.318H377.159Z" fill="#F2F2F7"></path>
</g><defs>
<linearGradient id="paint0_linear_1_11" x1="512" y1="512" x2="0" y2="0" gradientUnits="userSpaceOnUse">
<stop offset="0.677885" stop-color="#4B4B4B"></stop>
<stop offset="1" stop-color="#B1B1B1"></stop>
</linearGradient>
<clipPath id="clip0_1_11">
<rect width="512" height="512" fill="white"></rect>
</clipPath>
</defs></svg></g></g></svg></g><g id="dark-icon"><svg xmlns="http://www.w3.org/2000/svg" version="1.1" xmlns:xlink="http://www.w3.org/1999/xlink" width="1000" height="1000"><g clip-path="url(#SvgjsClipPath1157)"><rect width="1000" height="1000" fill="#ffffff"></rect><g transform="matrix(1.7578125,0,0,1.7578125,50,50)"><svg xmlns="http://www.w3.org/2000/svg" width="512" height="512" viewBox="0 0 512 512" fill="none"><g clip-path="url(#clip0_1_11)">
<rect x="0.5" y="0.5" width="511" height="511" rx="95.5" fill="url(#paint0_linear_1_11)" stroke="black"></rect>
<mask id="path-2-outside-1_1_11" maskUnits="userSpaceOnUse" x="78" y="114" width="219" height="293" fill="black">
<rect fill="white" x="78" y="114" width="219" height="293"></rect>
<path d="M295.773 406V115.091H260.545V259.409H257.136L126.455 115.091H80.4318L202.591 246.341L80.4318 406H123.045L224.182 270.773L260.545 311.682V406H295.773Z"></path>
</mask>
<path d="M295.773 406V115.091H260.545V259.409H257.136L126.455 115.091H80.4318L202.591 246.341L80.4318 406H123.045L224.182 270.773L260.545 311.682V406H295.773Z" fill="#303030"></path>
<path d="M295.773 406H296.773V407H295.773V406ZM295.773 115.091V114.091H296.773V115.091H295.773ZM260.545 115.091H259.545V114.091H260.545V115.091ZM260.545 259.409H261.545V260.409H260.545V259.409ZM257.136 259.409V260.409H256.693L256.395 260.08L257.136 259.409ZM126.455 115.091V114.091H126.898L127.196 114.42L126.455 115.091ZM80.4318 115.091L79.6998 115.772L78.1349 114.091H80.4318V115.091ZM202.591 246.341L203.323 245.66L203.898 246.278L203.385 246.949L202.591 246.341ZM80.4318 406V407H78.4075L79.6376 405.392L80.4318 406ZM123.045 406L123.846 406.599L123.546 407H123.045V406ZM224.182 270.773L223.381 270.174L224.115 269.192L224.929 270.108L224.182 270.773ZM260.545 311.682L261.293 311.017L261.545 311.302V311.682H260.545ZM260.545 406V407H259.545V406H260.545ZM295.773 406H294.773V115.091H295.773H296.773V406H295.773ZM295.773 115.091V116.091H260.545V115.091V114.091H295.773V115.091ZM260.545 115.091H261.545V259.409H260.545H259.545V115.091H260.545ZM260.545 259.409V260.409H257.136V259.409V258.409H260.545V259.409ZM257.136 259.409L256.395 260.08L125.713 115.762L126.455 115.091L127.196 114.42L257.878 258.738L257.136 259.409ZM126.455 115.091V116.091H80.4318V115.091V114.091H126.455V115.091ZM80.4318 115.091L81.1638 114.41L203.323 245.66L202.591 246.341L201.859 247.022L79.6998 115.772L80.4318 115.091ZM202.591 246.341L203.385 246.949L81.226 406.608L80.4318 406L79.6376 405.392L201.797 245.733L202.591 246.341ZM80.4318 406V405H123.045V406V407H80.4318V406ZM123.045 406L122.245 405.401L223.381 270.174L224.182 270.773L224.983 271.372L123.846 406.599L123.045 406ZM224.182 270.773L224.929 270.108L261.293 311.017L260.545 311.682L259.798 312.346L223.434 271.437L224.182 270.773ZM260.545 311.682H261.545V406H260.545H259.545V311.682H260.545ZM260.545 406V405H295.773V406V407H260.545V406Z" fill="white" mask="url(#path-2-outside-1_1_11)"></path>
<mask id="path-4-outside-2_1_11" maskUnits="userSpaceOnUse" x="259" y="114" width="212" height="293" fill="black">
<rect fill="white" x="259" y="114" width="212" height="293"></rect>
<path d="M260.227 406V115.091H358.523C381.25 115.091 399.905 118.973 414.489 126.739C429.072 134.409 439.867 144.968 446.875 158.415C453.883 171.862 457.386 187.155 457.386 204.295C457.386 221.436 453.883 236.634 446.875 249.892C439.867 263.15 429.119 273.566 414.631 281.142C400.142 288.623 381.629 292.364 359.091 292.364H279.545V260.545H357.955C373.485 260.545 385.985 258.273 395.455 253.727C405.019 249.182 411.932 242.742 416.193 234.409C420.549 225.981 422.727 215.943 422.727 204.295C422.727 192.648 420.549 182.468 416.193 173.756C411.837 165.044 404.877 158.32 395.312 153.585C385.748 148.756 373.106 146.341 357.386 146.341H295.455V406H260.227ZM397.159 275.318L468.75 406H427.841L357.386 275.318H397.159Z"></path>
</mask>
<path d="M260.227 406V115.091H358.523C381.25 115.091 399.905 118.973 414.489 126.739C429.072 134.409 439.867 144.968 446.875 158.415C453.883 171.862 457.386 187.155 457.386 204.295C457.386 221.436 453.883 236.634 446.875 249.892C439.867 263.15 429.119 273.566 414.631 281.142C400.142 288.623 381.629 292.364 359.091 292.364H279.545V260.545H357.955C373.485 260.545 385.985 258.273 395.455 253.727C405.019 249.182 411.932 242.742 416.193 234.409C420.549 225.981 422.727 215.943 422.727 204.295C422.727 192.648 420.549 182.468 416.193 173.756C411.837 165.044 404.877 158.32 395.312 153.585C385.748 148.756 373.106 146.341 357.386 146.341H295.455V406H260.227ZM397.159 275.318L468.75 406H427.841L357.386 275.318H397.159Z" fill="#303030"></path>
<path d="M260.227 406H259.227V407H260.227V406ZM260.227 115.091V114.091H259.227V115.091H260.227ZM414.489 126.739L414.019 127.621L414.023 127.624L414.489 126.739ZM446.875 158.415L445.988 158.877V158.877L446.875 158.415ZM446.875 249.892L445.991 249.425V249.425L446.875 249.892ZM414.631 281.142L415.089 282.031L415.094 282.028L414.631 281.142ZM279.545 292.364H278.545V293.364H279.545V292.364ZM279.545 260.545V259.545H278.545V260.545H279.545ZM395.455 253.727L395.025 252.824L395.022 252.826L395.455 253.727ZM416.193 234.409L415.305 233.95L415.303 233.954L416.193 234.409ZM395.312 153.585L394.862 154.478L394.869 154.481L395.312 153.585ZM295.455 146.341V145.341H294.455V146.341H295.455ZM295.455 406V407H296.455V406H295.455ZM397.159 275.318L398.036 274.838L397.751 274.318H397.159V275.318ZM468.75 406V407H470.438L469.627 405.52L468.75 406ZM427.841 406L426.961 406.475L427.244 407H427.841V406ZM357.386 275.318V274.318H355.711L356.506 275.793L357.386 275.318ZM260.227 406H261.227V115.091H260.227H259.227V406H260.227ZM260.227 115.091V116.091H358.523V115.091V114.091H260.227V115.091ZM358.523 115.091V116.091C381.145 116.091 399.624 119.957 414.019 127.621L414.489 126.739L414.959 125.856C400.187 117.99 381.355 114.091 358.523 114.091V115.091ZM414.489 126.739L414.023 127.624C428.443 135.208 439.083 145.626 445.988 158.877L446.875 158.415L447.762 157.953C440.652 144.309 429.701 133.61 414.954 125.854L414.489 126.739ZM446.875 158.415L445.988 158.877C452.912 172.163 456.386 187.295 456.386 204.295H457.386H458.386C458.386 187.016 454.853 171.56 447.762 157.953L446.875 158.415ZM457.386 204.295H456.386C456.386 221.296 452.912 236.331 445.991 249.425L446.875 249.892L447.759 250.359C454.853 236.938 458.386 221.575 458.386 204.295H457.386ZM446.875 249.892L445.991 249.425C439.087 262.487 428.494 272.765 414.167 280.256L414.631 281.142L415.094 282.028C429.745 274.368 440.648 263.812 447.759 250.359L446.875 249.892ZM414.631 281.142L414.172 280.253C399.869 287.639 381.527 291.364 359.091 291.364V292.364V293.364C381.731 293.364 400.415 289.607 415.089 282.031L414.631 281.142ZM359.091 292.364V291.364H279.545V292.364V293.364H359.091V292.364ZM279.545 292.364H280.545V260.545H279.545H278.545V292.364H279.545ZM279.545 260.545V261.545H357.955V260.545V259.545H279.545V260.545ZM357.955 260.545V261.545C373.569 261.545 386.234 259.263 395.887 254.629L395.455 253.727L395.022 252.826C385.736 257.283 373.401 259.545 357.955 259.545V260.545ZM395.455 253.727L395.884 254.63C405.62 250.004 412.709 243.419 417.084 234.864L416.193 234.409L415.303 233.954C411.155 242.066 404.418 248.36 395.025 252.824L395.455 253.727ZM416.193 234.409L417.082 234.868C421.526 226.27 423.727 216.067 423.727 204.295H422.727H421.727C421.727 215.819 419.573 225.693 415.305 233.95L416.193 234.409ZM422.727 204.295H423.727C423.727 192.523 421.525 182.184 417.088 173.308L416.193 173.756L415.299 174.203C419.573 182.752 421.727 192.773 421.727 204.295H422.727ZM416.193 173.756L417.088 173.308C412.625 164.383 405.496 157.511 395.756 152.689L395.312 153.585L394.869 154.481C404.258 159.129 411.049 165.704 415.299 174.203L416.193 173.756ZM395.312 153.585L395.763 152.693C386.009 147.767 373.195 145.341 357.386 145.341V146.341V147.341C373.017 147.341 385.487 149.744 394.862 154.478L395.312 153.585ZM357.386 146.341V145.341H295.455V146.341V147.341H357.386V146.341ZM295.455 146.341H294.455V406H295.455H296.455V146.341H295.455ZM295.455 406V405H260.227V406V407H295.455V406ZM397.159 275.318L396.282 275.799L467.873 406.48L468.75 406L469.627 405.52L398.036 274.838L397.159 275.318ZM468.75 406V405H427.841V406V407H468.75V406ZM427.841 406L428.721 405.525L358.267 274.844L357.386 275.318L356.506 275.793L426.961 406.475L427.841 406ZM357.386 275.318V276.318H397.159V275.318V274.318H357.386V275.318Z" fill="white" mask="url(#path-4-outside-2_1_11)"></path>
<path d="M275.773 396V105.091H240.545V249.409H237.136L106.455 105.091H60.4318L182.591 236.341L60.4318 396H103.045L204.182 260.773L240.545 301.682V396H275.773Z" fill="#F2F2F7"></path>
<path d="M240.227 396V105.091H338.523C361.25 105.091 379.905 108.973 394.489 116.739C409.072 124.409 419.867 134.968 426.875 148.415C433.883 161.862 437.386 177.155 437.386 194.295C437.386 211.436 433.883 226.634 426.875 239.892C419.867 253.15 409.119 263.566 394.631 271.142C380.142 278.623 361.629 282.364 339.091 282.364H259.545V250.545H337.955C353.485 250.545 365.985 248.273 375.455 243.727C385.019 239.182 391.932 232.742 396.193 224.409C400.549 215.981 402.727 205.943 402.727 194.295C402.727 182.648 400.549 172.468 396.193 163.756C391.837 155.044 384.877 148.32 375.312 143.585C365.748 138.756 353.106 136.341 337.386 136.341H275.455V396H240.227ZM377.159 265.318L448.75 396H407.841L337.386 265.318H377.159Z" fill="#F2F2F7"></path>
</g><defs>
<linearGradient id="paint0_linear_1_11" x1="512" y1="512" x2="0" y2="0" gradientUnits="userSpaceOnUse">
<stop offset="0.677885" stop-color="#4B4B4B"></stop>
<stop offset="1" stop-color="#B1B1B1"></stop>
</linearGradient>
<clipPath id="clip0_1_11">
<rect width="512" height="512" fill="white"></rect>
</clipPath>
<clipPath id="SvgjsClipPath1157"><rect width="1000" height="1000" x="0" y="0" rx="200" ry="200"></rect></clipPath></defs></svg></g></g></svg></g></svg>